<?xml version="1.0" standalone="no"?>
<!DOCTYPE svg PUBLIC "-//W3C//DTD SVG 20010904//EN"
 "http://www.w3.org/TR/2001/REC-SVG-20010904/DTD/svg10.dtd">
<svg version="1.0" xmlns="http://www.w3.org/2000/svg"
 width="512.000000pt" height="512.000000pt" viewBox="0 0 512.000000 512.000000"
 preserveAspectRatio="xMidYMid meet">
<metadata>
Created by potrace 1.14, written by Peter Selinger 2001-2017
</metadata>
<g transform="translate(0.000000,512.000000) scale(0.100000,-0.100000)"
fill="#000000" stroke="none">
<path d="M2440 5101 c-155 -49 -259 -161 -296 -318 -15 -63 -14 -131 0 -223 3
-14 7 -50 11 -81 3 -31 7 -65 9 -75 2 -11 7 -46 10 -79 6 -58 13 -111 22 -167
4 -28 10 -26 -109 -44 -72 -10 -282 -65 -382 -98 -170 -58 -309 -122 -490
-225 -305 -175 -610 -482 -783 -789 -196 -347 -274 -705 -239 -1102 19 -221
83 -442 189 -655 54 -109 178 -301 227 -354 28 -30 36 -33 71 -28 38 5 43 2
89 -46 39 -40 48 -55 40 -68 -19 -36 -9 -62 43 -114 193 -190 539 -390 862
-499 66 -23 302 -83 349 -90 20 -3 54 -9 75 -12 20 -3 44 -7 52 -9 101 -26
618 -26 745 0 11 3 36 7 55 9 107 15 288 59 410 100 592 194 1079 597 1334
1104 70 137 135 317 160 442 33 165 38 210 41 365 3 224 -24 403 -95 616 -161
485 -537 919 -1022 1179 -43 23 -78 44 -78 47 0 3 33 38 73 78 39 39 81 83 92
96 196 237 357 567 359 736 0 63 -2 75 -24 99 -59 63 -217 106 -444 118 -95 6
-140 -9 -150 -48 -5 -22 -12 -26 -44 -26 -20 -1 -54 -3 -74 -6 -26 -4 -38 -2
-38 7 0 6 -11 22 -24 34 -29 27 -64 26 -190 -5 -117 -30 -276 -95 -292 -121
-11 -18 -21 -8 -50 47 -46 88 -151 176 -249 206 -58 18 -186 18 -245 -1z"/>
</g>
</svg>
